<?xml version="1.0" encoding="UTF-8" standalone="no"?>
<!-- Created with Inkscape (http://www.inkscape.org/) -->

<svg
   xmlns:dc="http://purl.org/dc/elements/1.1/"
   xmlns:cc="http://creativecommons.org/ns#"
   xmlns:rdf="http://www.w3.org/1999/02/22-rdf-syntax-ns#"
   xmlns:svg="http://www.w3.org/2000/svg"
   xmlns="http://www.w3.org/2000/svg"
   xmlns:sodipodi="http://sodipodi.sourceforge.net/DTD/sodipodi-0.dtd"
   xmlns:inkscape="http://www.inkscape.org/namespaces/inkscape"
   width="28.584248mm"
   height="32.896492mm"
   viewBox="0 0 101.28277 116.56237"
   id="svg2"
   version="1.1"
   inkscape:version="0.91 r13725"
   inkscape:export-filename="retry.png"
   inkscape:export-xdpi="113.50146"
   inkscape:export-ydpi="113.50146"
   sodipodi:docname="retry.svg">
  <defs
     id="defs4" />
  <sodipodi:namedview
     id="base"
     pagecolor="#ffffff"
     bordercolor="#666666"
     borderopacity="1.0"
     inkscape:pageopacity="0.0"
     inkscape:pageshadow="2"
     inkscape:zoom="2.8"
     inkscape:cx="23.384243"
     inkscape:cy="49.07791"
     inkscape:document-units="px"
     inkscape:current-layer="layer1"
     showgrid="false"
     inkscape:window-width="1440"
     inkscape:window-height="802"
     inkscape:window-x="0"
     inkscape:window-y="125"
     inkscape:window-maximized="1"
     fit-margin-top="0"
     fit-margin-left="0"
     fit-margin-right="0"
     fit-margin-bottom="0" />
  <metadata
     id="metadata7">
    <rdf:RDF>
      <cc:Work
         rdf:about="">
        <dc:format>image/svg+xml</dc:format>
        <dc:type
           rdf:resource="http://purl.org/dc/dcmitype/StillImage" />
        <dc:title></dc:title>
      </cc:Work>
    </rdf:RDF>
  </metadata>
  <g
     inkscape:label="Layer 1"
     inkscape:groupmode="layer"
     id="layer1"
     transform="translate(-21.71895,-913.35922)">
    <path
       id="path4153"
       style="fill:#f2f2f2;fill-rule:evenodd;stroke:#f2f2f2;stroke-width:1.29364049px;stroke-linecap:butt;stroke-linejoin:miter;stroke-opacity:1"
       d="M 44.154435,914.93162 67.585127,965.1789 27.39632,953.33265 Z m 8.50806,18.40327 6.413567,13.75392 a 34.847713,34.847713 0 0 1 44.851988,17.44909 34.847713,34.847713 0 0 1 -16.855449,46.31 34.847713,34.847713 0 0 1 -46.309977,-16.85544 34.847713,34.847713 0 0 1 -2.83745,-20.07423 L 22.91476,971.92038 a 50,50 0 0 0 4.115182,28.47582 50,50 0 0 0 66.446294,24.1844 50,50 0 0 0 24.184474,-66.44637 50,50 0 0 0 -64.998212,-24.79935 z"
       inkscape:connector-curvature="0" />
  </g>
</svg>
